PathFileType	4	(X/Y/Z)	C:\Users\Basilio\Documents\Thesis Gigler\squatting_fais\c3dfiles\038\SJ_pre1\markers_experimental.trc
DataRate	CameraRate	NumFrames	NumMarkers	Units	OrigDataRate	OrigDataStartFrame	OrigNumFrames
200.000000	200.000000	4	61	mm	200.000000	1024	1366
Frame#	Time	FHD			LBHD			RBHD			C7			T10			CLAV			LSHO			LUUPA			LMUPA			LDUPA			LLEP			LMEP			LRAD			LUL			LRFIN			RSHO			RUPA1			RMUPA			RDUPA			RLEP			RMEP			RRAD			RUL			RUFIN			LASI			RASI			USACR			LSACR			RSACR			LTHI1			LTHI2			LTHI3			LTHI4			LLFC			LMFC			LTIB1			LTIB2			LTIB3			LTIB4			LLMAL			LMMAL			LHEE			LMT1			LMT2			LMT5			RTHI			RTHI2			RTHI3			RTHI4			RLFC			RMFC			RTIB1			RTIB2			RTIB3			RTIB4			RLMAL			RMMAL			RHEE			RMT1			RMT2			RMT5			
		X1	Y1	Z1	X2	Y2	Z2	X3	Y3	Z3	X4	Y4	Z4	X5	Y5	Z5	X6	Y6	Z6	X7	Y7	Z7	X8	Y8	Z8	X9	Y9	Z9	X10	Y10	Z10	X11	Y11	Z11	X12	Y12	Z12	X13	Y13	Z13	X14	Y14	Z14	X15	Y15	Z15	X16	Y16	Z16	X17	Y17	Z17	X18	Y18	Z18	X19	Y19	Z19	X20	Y20	Z20	X21	Y21	Z21	X22	Y22	Z22	X23	Y23	Z23	X24	Y24	Z24	X25	Y25	Z25	X26	Y26	Z26	X27	Y27	Z27	X28	Y28	Z28	X29	Y29	Z29	X30	Y30	Z30	X31	Y31	Z31	X32	Y32	Z32	X33	Y33	Z33	X34	Y34	Z34	X35	Y35	Z35	X36	Y36	Z36	X37	Y37	Z37	X38	Y38	Z38	X39	Y39	Z39	X40	Y40	Z40	X41	Y41	Z41	X42	Y42	Z42	X43	Y43	Z43	X44	Y44	Z44	X45	Y45	Z45	X46	Y46	Z46	X47	Y47	Z47	X48	Y48	Z48	X49	Y49	Z49	X50	Y50	Z50	X51	Y51	Z51	X52	Y52	Z52	X53	Y53	Z53	X54	Y54	Z54	X55	Y55	Z55	X56	Y56	Z56	X57	Y57	Z57	X58	Y58	Z58	X59	Y59	Z59	X60	Y60	Z60	X61	Y61	Z61	

1025	5.12	-179.872299194336	1609.835815429688	-952.929626464844	-298.0295104980469	1487.44970703125	-1000.680908203125	-276.0207214355469	1489.6552734375	-856.1247558593752	-299.0850830078126	1361.692626953125	-911.423767089844	-380.4231262207032	1101.664672851563	-883.4622192382815	-160.2467041015625	1310.642822265625	-938.2630004882815	-226.2940368652344	1340.700561523438	-1104.50341796875	-331.9353942871094	1132.432739257813	-1199.907104492188	-288.8679504394532	1106.453002929688	-1202.744506835938	-329.6672058105469	1065.131225585938	-1217.403076171875	-321.5341796875001	1003.789489746094	-1226.726928710938	-365.3493957519532	979.5047607421877	-1159.56298828125	-110.0787811279297	876.266540527344	-1063.454345703125	-118.8065567016602	830.4941406250002	-1117.986206054688	-32.82287979125977	855.564392089844	-1050.401123046875	-163.4132080078125	1347.066040039063	-765.8055419921876	-171.684326171875	1165.393798828125	-621.5407714843751	-143.406234741211	1128.988037109375	-638.3031616210939	-170.2159576416016	1102.328002929688	-591.9938964843751	-155.9109039306641	1029.8583984375	-572.6763305664064	-228.6174468994141	999.3223266601565	-601.3540649414064	-53.75333786010744	844.388610839844	-752.8741455078126	-35.79932022094727	805.7280883789065	-693.5000610351564	20.84779739379883	816.6356201171877	-776.6260375976565	-317.6413574218751	877.2137451171877	-1003.161865234375	-292.2135925292969	887.3742675781252	-762.0818481445314	-449.1106872558595	980.363708496094	-871.4234619140627	-474.9145812988282	954.9002075195315	-897.114440917969	-465.4185791015626	954.5922851562502	-839.7688598632815	-284.8509521484376	645.0319824218751	-1130.791137695313	-221.0482177734376	590.9218750000001	-1151.5615234375	-179.7758331298828	611.5356445312501	-1132.761596679688	-221.5286865234376	529.8927001953126	-1144.781005859375	-201.7251129150391	481.0164794921876	-1144.84912109375	-171.4823455810547	464.2785644531251	-1043.243286132813	-205.5124053955079	292.0967712402344	-1085.186889648438	-276.8791503906251	272.5265197753907	-1136.275390625	-241.0360260009766	254.9554901123047	-1115.346923828125	-273.7069091796876	184.2393798828125	-1079.36865234375	-404.832244873047	90.47360992431642	-1076.337036132813	-345.6615295410157	94.02956390380861	-1015.870910644531	-440.6734313964845	45.72559356689454	-1012.708251953125	-242.1901092529297	45.1328353881836	-1088.500610351563	-255.1485443115235	50.47643280029298	-1136.490844726563	-312.0792846679688	32.5124626159668	-1166.10107421875	-298.1310729980469	667.3413085937501	-661.3127441406251	-243.5390625000001	633.9982910156251	-643.5193481445314	-212.8816375732422	649.5287475585939	-642.4111938476564	-231.573226928711	548.4677734375001	-653.3906860351564	-171.2298126220703	448.4268493652345	-649.5925903320314	-153.4546966552735	450.0685424804689	-755.8345947265626	-182.0816192626953	276.7087402343751	-683.5995483398439	-291.7062988281251	235.2683868408204	-673.7103271484376	-247.0526428222657	219.9520568847657	-675.0530395507814	-252.3247833251954	170.8194274902344	-708.9793090820314	-369.8947448730469	92.24694061279298	-708.8858642578126	-318.5550231933594	88.44628906250001	-777.4091796875002	-412.9039001464845	41.71047973632813	-791.6694946289065	-215.4888458251954	48.23384475708009	-693.8137207031251	-236.1212768554688	51.97218322753908	-652.9885253906251	-294.6877441406251	35.54702377319337	-627.1116943359376	
1026	5.125	-181.0431823730469	1611.472290039063	-952.9106445312502	-299.0242004394532	1489.0166015625	-1000.757873535156	-276.8726196289063	1491.17919921875	-856.0805664062502	-299.9148559570313	1362.99609375	-911.4000244140627	-380.9258117675782	1102.844604492188	-883.622741699219	-160.9910736083985	1312.296875	-938.4421997070315	-227.5798797607422	1342.434448242188	-1104.61572265625	-333.3207397460938	1134.145629882813	-1200.061767578125	-289.8987121582032	1108.388671875	-1203.1201171875	-330.8611145019532	1066.931762695313	-1217.694458007813	-322.7269592285157	1005.81494140625	-1227.178100585938	-366.2123718261719	981.1560058593752	-1159.898559570313	-110.3000259399414	878.006042480469	-1065.533813476563	-119.2699737548828	831.915954589844	-1119.871337890625	-33.33311462402344	857.374938964844	-1052.781860351563	-164.1877136230469	1348.538696289063	-765.9089355468751	-172.6997528076172	1167.098266601563	-621.5178833007814	-144.2396240234375	1130.627807617188	-638.4653320312501	-171.1078186035157	1103.693969726563	-592.0874023437501	-156.5839233398438	1031.4580078125	-572.8475341796876	-229.2196197509766	1000.692932128906	-601.5164794921876	-53.84488677978517	845.2227783203127	-751.9650878906251	-36.41910934448243	806.5628662109377	-692.4218750000001	20.87631034851075	817.3638305664065	-775.059020996094	-317.7839965820313	878.7279052734377	-1003.385498046875	-291.8885803222657	888.9420166015627	-761.6972656250001	-449.3006286621095	981.671813964844	-871.534362792969	-475.1768798828126	956.0552978515627	-897.2976074218752	-465.5825805664064	955.5772705078127	-839.8218994140627	-285.5039367675782	645.6256713867189	-1130.839111328125	-221.8271179199219	591.5448608398439	-1151.619018554688	-180.4676818847657	611.9215698242189	-1132.870483398438	-222.4683532714844	530.4494628906251	-1144.357299804688	-202.4965972900391	481.5740661621095	-1144.830078125	-172.1250305175782	464.6424255371095	-1043.2392578125	-205.957748413086	292.3134155273438	-1085.436401367188	-277.4093017578126	272.7250061035157	-1136.396362304688	-241.3693847656251	255.1072540283204	-1115.52587890625	-274.1111450195313	184.2735900878907	-1079.60888671875	-404.7768554687501	89.86623382568361	-1076.544677734375	-345.9132995605469	94.12536621093751	-1015.947509765625	-440.7177734375001	45.68866729736329	-1012.751403808594	-242.2146759033204	45.1513900756836	-1088.525512695313	-255.480941772461	50.53875732421876	-1136.402099609375	-312.0402526855469	32.33420562744141	-1166.166748046875	-298.5784912109376	668.3103637695314	-661.7014770507814	-243.6659851074219	635.0452880859376	-643.7977294921876	-213.3137512207032	650.1533203125001	-642.7146606445314	-232.0257720947266	549.0326538085939	-653.9380493164064	-171.9866027832032	449.2771301269532	-649.7788696289064	-154.3114929199219	450.549285888672	-756.2780151367189	-182.6904296875	277.1831359863282	-683.7216796875001	-291.8879394531251	235.5687255859376	-673.6777954101564	-247.3814544677735	220.2705383300782	-675.1543579101564	-252.5682830810547	170.9986572265625	-709.1155395507814	-369.9687194824219	92.19194793701173	-708.8956909179689	-318.5930480957032	88.42398071289064	-777.4312744140627	-412.977752685547	41.63653182983399	-791.6707763671877	-215.5597381591797	48.15187072753908	-693.8826904296876	-236.1463012695313	52.01607513427736	-653.0076293945314	-294.6672668457032	35.55565261840821	-627.1055908203126	
1027	5.13	-182.1168060302735	1612.985107421875	-952.8916015625002	-299.6357727050782	1490.942260742188	-1000.643676757813	-277.8258056640626	1492.903076171875	-856.1970214843752	-301.0336608886719	1364.557495117188	-911.3635253906252	-381.2284851074219	1104.13720703125	-883.7545166015627	-161.7928314208985	1313.962890625	-938.5461425781252	-228.7691497802735	1344.282470703125	-1104.510620117188	-334.4393310546876	1136.119995117188	-1200.176635742188	-291.0330200195313	1110.384887695313	-1203.482421875	-332.1604919433594	1068.8935546875	-1217.988403320313	-323.9366149902344	1007.607055664063	-1227.6806640625	-367.1175537109376	982.8186035156252	-1160.152465820313	-110.2670059204102	879.7083740234377	-1067.027709960938	-120.3817138671875	834.0249023437502	-1121.807983398438	-33.6018295288086	859.0117187500002	-1055.231323242188	-165.2666168212891	1350.150024414063	-765.8130493164064	-173.4205169677735	1168.555541992188	-621.6588134765626	-144.8271179199219	1132.190795898438	-638.3743896484376	-171.8737487792969	1105.303466796875	-592.1734619140626	-157.3681793212891	1032.960571289063	-572.7089233398439	-229.8737792968751	1002.254272460938	-601.7145996093751	-53.9136428833008	846.0979614257815	-751.1649780273439	-37.21272659301759	807.5476684570315	-691.3059692382814	20.94937133789063	818.218200683594	-773.6004638671877	-317.8997192382813	879.9906005859377	-1003.640319824219	-291.9337158203126	890.2518310546877	-762.2315673828126	-449.473114013672	983.1045532226565	-871.695007324219	-475.2593994140626	957.2012329101565	-897.4534301757815	-465.6998291015626	956.670349121094	-840.035339355469	-286.0912475585938	646.2013549804689	-1130.951904296875	-222.5276794433594	592.1183471679689	-1151.744018554688	-181.1980743408203	612.4473876953126	-1133.129028320313	-223.1024017333985	530.8655395507814	-1144.75048828125	-203.3773498535157	481.9762268066407	-1144.8544921875	-172.8301849365235	465.0528564453126	-1043.018188476563	-206.5497436523438	292.4924011230469	-1085.55908203125	-277.9592285156251	272.9021911621094	-1136.50341796875	-241.6643218994141	255.3404846191407	-1115.603393554688	-274.7141418457032	184.6964416503907	-1079.817260742188	-404.7505798339845	89.96611785888673	-1076.56005859375	-346.0812377929688	94.2198944091797	-1016.013854980469	-440.796600341797	45.57388305664063	-1012.760437011719	-242.2142486572266	45.1903190612793	-1088.568969726563	-255.6158599853516	50.38961029052736	-1136.357055664063	-312.0837707519532	32.27085876464844	-1166.210083007813	-298.9246520996094	668.9750366210939	-662.2427978515626	-244.0114440917969	635.7824096679689	-644.1516723632814	-213.5494079589844	650.8106689453126	-643.1231079101564	-232.6736907958985	549.8519897460939	-654.4430541992189	-172.8961029052735	449.9780883789064	-650.1760864257814	-155.0437927246094	450.857635498047	-756.6414794921876	-183.2430725097657	277.6455078125001	-683.8572387695314	-292.2622680664063	235.727767944336	-673.8488159179689	-247.6797027587891	220.5786132812501	-675.3171997070314	-252.8348846435547	171.2030487060547	-709.2033081054689	-370.0954589843751	92.21150970458986	-708.9750976562501	-318.6641845703126	88.4185028076172	-777.4511718750002	-413.0744934082032	41.60285186767579	-791.6306152343752	-215.5891113281251	48.09429931640626	-693.8934326171876	-236.0777130126954	52.02997207641603	-653.0253906250001	-294.7047424316407	35.5494499206543	-627.1470947265626	
1028	5.135	-182.957748413086	1614.669189453125	-952.8601074218752	-300.8729248046876	1492.186279296875	-1000.70703125	-279.2457275390626	1494.353515625	-856.0928955078127	-302.0321044921876	1365.937622070313	-911.345397949219	-381.8684692382813	1105.321533203125	-883.9444580078127	-162.9087829589844	1315.797729492188	-938.4309082031252	-230.0104675292969	1345.970458984375	-1104.618041992188	-335.7210693359376	1137.765380859375	-1200.228759765625	-292.2951965332032	1112.211059570313	-1203.707641601563	-333.4289245605469	1070.723876953125	-1218.105712890625	-325.0426635742188	1009.61376953125	-1228.053466796875	-368.0382995605469	984.5933837890627	-1160.509399414063	-110.6928939819336	881.4514770507815	-1068.983520507813	-120.8337554931641	835.591247558594	-1123.71630859375	-33.75542831420899	860.8203125000002	-1057.449096679688	-166.1581726074219	1351.744140625	-765.9382934570314	-174.2251434326172	1170.1728515625	-621.8404541015626	-145.7076721191407	1133.7431640625	-638.4007568359376	-172.6072540283203	1106.821533203125	-592.2276611328126	-158.0809783935547	1034.558227539063	-572.7262573242189	-230.6386871337891	1003.783203125	-601.7958374023439	-53.89979171752931	847.1093750000002	-750.3554077148439	-37.84629440307618	808.4461059570315	-690.2556762695314	20.69249725341797	819.223327636719	-771.8726806640627	-317.8842773437501	881.3557128906252	-1003.98828125	-292.0148925781251	891.348083496094	-762.3316650390626	-449.7229003906251	984.3580322265627	-871.8139648437502	-475.4028930664064	958.1555175781252	-897.5340576171877	-465.7846069335939	957.7786254882815	-840.169372558594	-286.7719421386719	646.7901611328126	-1131.032836914063	-223.3626556396485	592.5921630859376	-1151.894165039063	-181.7669677734375	612.8106689453126	-1133.395385742188	-224.0083923339844	531.3895263671876	-1144.631713867188	-204.4268951416016	482.2011108398439	-1144.801025390625	-173.7246551513672	465.6555175781251	-1042.87109375	-207.2202911376954	292.7643127441407	-1085.991333007813	-278.9026489257813	273.1774597167969	-1136.347290039063	-242.538314819336	255.8344879150391	-1115.628295898438	-275.0653991699219	184.8643493652344	-1080.034057617188	-404.9516906738282	89.83198547363283	-1076.656005859375	-346.1073608398438	94.20651245117189	-1016.182006835938	-440.8495178222657	45.5778923034668	-1012.801391601563	-242.3611755371094	45.22737503051759	-1088.632080078125	-255.5137786865235	50.60871505737306	-1136.729736328125	-312.1981506347657	32.22842025756837	-1166.23486328125	-299.2705078125001	669.8944702148439	-662.7208251953126	-244.4542083740235	636.2907714843751	-644.3120727539064	-213.9686584472657	651.5233764648439	-643.4154052734376	-233.4290924072266	550.5604858398439	-654.7917480468751	-173.70263671875	450.1748657226564	-650.6506347656251	-155.7089233398438	451.2058410644532	-757.0225219726564	-183.590576171875	277.8089904785157	-684.1217651367189	-292.5902709960938	235.9176483154297	-674.0139160156251	-248.0842437744141	220.7825927734376	-675.5780639648439	-253.0103607177735	171.4147033691407	-709.3444213867189	-370.1286926269532	92.14482879638673	-708.9799194335939	-318.7372131347657	88.38781738281251	-777.4826660156252	-413.0499572753907	41.58951950073243	-791.6290283203127	-215.5987243652344	48.24937438964845	-693.9420166015626	-236.1343536376954	52.02495574951173	-653.0361328125001	-294.6794128417969	35.55979537963868	-627.1245117187501	
